{"title":"Nineteen.Eighty-Four.[aka.1984].(1984).[2004.UK.DVD.Eurythmics.v","uid":7057944,"size":254128498,"categoryP":"video","categoryS":"movies","magnet":"?xt=urn:btih:1601b5141e2ef0c42f797c81965fb8331b455cc8&amp;dn=Nineteen.Eighty-Four.%5Baka.1984%5D.%281984%29.%5B2004.UK.DVD.Eurythmics.v&amp;tr=udp%3A%2F%2Ftracker.openbittorrent.com%3A80&amp;tr=udp%3A%2F%2Fopen.demonii.com%3A1337&amp;tr=udp%3A%2F%2Ftracker.coppersurfer.tk%3A6969&amp;tr=udp%3A%2F%2Fexodus.desync.com%3A6969","seeders":1,"leechers":0,"uploader":"k3nd00d","files":-1,"time":1330219166,"description":"\nNineteen Eighty-Four\n[Eurythmics version]\n(1984)\n\nxxxxxxxxxxxxxxxxxxxxxxxxxxxxxxxxxxxxxxxxxxxxxxxxxxxxxxxxxxxxxxxxxxxxxxxxxxxxxxxx\n &lt;a href=&quot;\nhttp://www.imdb.com/title/tt0087803/&quot; rel=&quot;nofollow&quot; target=&quot;_NEW&quot;&gt;\nhttp://www.imdb.com/title/tt0087803/&lt;/a&gt;\n\nxxxxxxxxxxxxxxxxxxxxxxxxxxxxxxxxxxxxxxxxxxxxxxxxxxxxxxxxxxxxxxxxxxxxxxxxxxxxxxxx\n\nNineteen Eighty-Four (mostly written 1984) is a 1948 dystopian fiction written\nby George Orwell (Eric Arthur Blair), about a society ruled by an oligarchical\ndictatorship. The Oceanian province of Airstrip One is a world of perpetual war,\npervasive government surveillance, and incessant public mind control. Oceania is\nruled by a political party called simply The Party. The individual is always\nsubordinated to the state, and it is in part this philosophy which allows the\nParty to manipulate and control humanity. In the Ministry of Truth, protagonist\nWinston Smith is a civil servant responsible for perpetuating the Party's\npropaganda by revising historical records to render the Party omniscient and\nalways correct, yet his meager existence disillusions him to the point of\nseeking rebellion against Big Brother.\n\nMany people often draw parallels between our modern reality and Orwell's vision.\n\nxxxxxxxxxxxxxxxxxxxxxxxxxxxxxxxxxxxxxxxxxxxxxxxxxxxxxxxxxxxxxxxxxxxxxxxxxxxxxxxx\n\nGeneral\nFormat                           : MPEG-4\nFormat profile                   : Base Media / Version 2\nCodec ID                         : mp42\nFile size                        : 242 MiB\nDuration                         : 1h 45mn\nOverall bit rate                 : 319 Kbps\n\nVideo\nID                               : 1\nFormat                           : AVC\nFormat/Info                      : Advanced Video Codec\nFormat profile                   : &lt;a class=&quot;__cf_email__&quot; href=&quot;/cdn-cgi/l/email-protection&quot; data-cfemail=&quot;52103321373e3b3c37121e607c63&quot;&gt;[email&amp;#160;protected]&lt;/a&gt;&lt;script cf-hash='f9e31' type=&quot;text/javascript&quot;&gt;\n/* &lt;![CDATA[ */!function(){try{var t=&quot;currentScript&quot;in document?document.currentScript:function(){for(var t=document.getElementsByTagName(&quot;script&quot;),e=t.length;e--;)if(t[e].getAttribute(&quot;cf-hash&quot;))return t[e]}();if(t&amp;&amp;t.previousSibling){var e,r,n,i,c=t.previousSibling,a=c.getAttribute(&quot;data-cfemail&quot;);if(a){for(e=&quot;&quot;,r=parseInt(a.substr(0,2),16),n=2;a.length-n;n+=2)i=parseInt(a.substr(n,2),16)^r,e+=String.fromCharCode(i);e=document.createTextNode(e),c.parentNode.replaceChild(e,c)}}}catch(u){}}();/* ]]&gt; */&lt;/script&gt;\nFormat settings, CABAC           : No\nFormat settings, ReFrames        : 2 frames\nCodec ID                         : avc1\nCodec ID/Info                    : Advanced Video Coding\nDuration                         : 1h 45mn\nBit rate mode                    : Variable\nBit rate                         : 269 Kbps\nWidth                            : 480 pixels\nHeight                           : 272 pixels\nDisplay aspect ratio             : 16:9\nFrame rate mode                  : Variable\nFrame rate                       : 25.000 fps\nMinimum frame rate               : 8.333 fps\nMaximum frame rate               : 25.000 fps\nColor space                      : YUV\nChroma subsampling               : 4:2:0\nBit depth                        : 8 bits\nScan type                        : Progressive\nBits/(Pixel*Frame)               : 0.082\nStream size                      : 204 MiB (84%)\nWriting library                  : x264 core 79\n\nAudio\nID                               : 2\nFormat                           : AAC\nFormat/Info                      : Advanced Audio Codec\nFormat profile                   : LC\nCodec ID                         : 40\nDuration                         : 1h 45mn\nBit rate mode                    : Variable\nBit rate                         : 48.0 Kbps\nMaximum bit rate                 : 72.9 Kbps\nChannel(s)                       : 2 channels\nChannel positions                : Front: L R\nSampling rate                    : 24.0 KHz\nCompression mode                 : Lossy\nStream size                      : 36.4 MiB (15%)\n\nxxxxxxxxxxxxxxxxxxxxxxxxxxxxxxxxxxxxxxxxxxxxxxxxxxxxxxxxxxxxxxxxxxxxxxxxxxxxxxxx\n\nFaCTFiCTioN ... 1. A work of fiction based in fact.\n                2. A work of fiction which later becomes fact.\n","torrent":{"xt":"urn:btih:1601b5141e2ef0c42f797c81965fb8331b455cc8","amp;dn":"Nineteen.Eighty-Four.%5Baka.1984%5D.%281984%29.%5B2004.UK.DVD.Eurythmics.v","amp;tr":["udp%3A%2F%2Ftracker.openbittorrent.com%3A80","udp%3A%2F%2Fopen.demonii.com%3A1337","udp%3A%2F%2Ftracker.coppersurfer.tk%3A6969","udp%3A%2F%2Fexodus.desync.com%3A6969"],"infoHash":"1601b5141e2ef0c42f797c81965fb8331b455cc8","infoHashBuffer":{"type":"Buffer","data":[22,1,181,20,30,46,240,196,47,121,124,129,150,95,184,51,27,69,92,200]},"announce":[],"urlList":[]}}